<svg width="40" height="40" viewBox="0 0 40 40" fill="none" xmlns="http://www.w3.org/2000/svg">
<path d="M20 36.6714L2.66621 28.6801C2.72621 28.7164 1.13248 27.9964 0 27.3489C0 28.3152 0.242484 30.0864 1.14379 30.5639L18.1138 38.1926C19.6138 38.9001 20.26 38.9001 21.885 38.1926L38.855 30.5639C39.6937 30.1739 40 28.3376 40 27.3489C38.9088 27.8951 37.3637 28.6739 37.3337 28.6801L20 36.6714ZM20 3.37511C20.125 3.52139 20.0925 3.40511 20 3.37511V3.37511ZM1.14379 22.5726L18.1138 30.2014C19.6138 30.9088 20.26 30.9088 21.885 30.2014L38.855 22.5726C39.6937 22.1826 40 20.3464 40 19.3576C38.9088 19.9039 37.3637 20.6826 37.3337 20.6889L20 28.6801L2.66621 20.6889C2.72621 20.7252 1.13248 20.0051 0 19.3576C0 20.3239 0.242484 22.0952 1.14379 22.5726ZM1.14379 14.5814L18.1138 22.2101C19.6138 22.9177 20.26 22.9177 21.885 22.2101L38.855 14.5814C40.105 13.9989 40.1463 11.5214 38.855 10.8139L21.885 1.85387C20.5525 1.06387 19.6138 1.10511 18.1137 1.85387L1.14379 10.8139C-0.147516 11.6464 -0.188758 13.8739 1.14379 14.5814ZM20 3.37511L37.3337 12.6976L20 20.0026L2.66621 12.6976L20 3.37511Z" fill="black"/>
</svg>
