<svg width="63" height="63" viewBox="0 0 63 63" fill="none" xmlns="http://www.w3.org/2000/svg">
<path d="M54.3809 11.1973H14.1437C13.7623 11.1973 13.4531 11.5065 13.4531 11.8878V13.9595H11.3814C11.0001 13.9595 10.6909 14.2687 10.6909 14.6501V16.7218H8.61916C8.23778 16.7218 7.92859 17.031 7.92859 17.4124V51.1122C7.92859 51.3915 8.09681 51.6433 8.3549 51.7502C8.44035 51.7855 8.53003 51.8027 8.61907 51.8027C8.7988 51.8027 8.9754 51.7326 9.10753 51.6004L15.8108 44.897H48.8563C49.2377 44.897 49.5469 44.5878 49.5469 44.2065V42.1348H51.6186C52 42.1348 52.3092 41.8256 52.3092 41.4442V39.3725H54.3809C54.7623 39.3725 55.0714 39.0633 55.0714 38.6819V11.8878C55.0715 11.5065 54.7623 11.1973 54.3809 11.1973ZM48.1658 43.5159H15.5249C15.3417 43.5159 15.166 43.5886 15.0366 43.7182L9.30973 49.445V18.103H48.1658V43.5159ZM53.6903 37.9914H52.3092V29.4283C52.3092 29.0469 52 28.7377 51.6186 28.7377C51.2372 28.7377 50.928 29.0469 50.928 29.4283V40.7536H49.5469V17.4124C49.5469 17.031 49.2377 16.7218 48.8563 16.7218H12.072V15.3407H50.928V26.666C50.928 27.0474 51.2372 27.3566 51.6186 27.3566C52 27.3566 52.3092 27.0474 52.3092 26.666V14.6501C52.3092 14.2687 52 13.9595 51.6186 13.9595H14.8343V12.5784H53.6903V37.9914ZM44.0223 26.666C44.0223 27.0474 43.7132 27.3566 43.3318 27.3566H14.1437C13.7623 27.3566 13.4531 27.0474 13.4531 26.666C13.4531 26.2846 13.7623 25.9754 14.1437 25.9754H43.3318C43.7132 25.9754 44.0223 26.2846 44.0223 26.666ZM44.0223 32.1906C44.0223 32.5719 43.7132 32.8811 43.3318 32.8811H14.1437C13.7623 32.8811 13.4531 32.5719 13.4531 32.1906C13.4531 31.8092 13.7623 31.5 14.1437 31.5H43.3318C43.7132 31.5 44.0223 31.8092 44.0223 32.1906ZM44.0223 34.9528C44.0223 35.3342 43.7132 35.6434 43.3318 35.6434H14.1437C13.7623 35.6434 13.4531 35.3342 13.4531 34.9528C13.4531 34.5715 13.7623 34.2623 14.1437 34.2623H43.3318C43.7132 34.2623 44.0223 34.5715 44.0223 34.9528ZM44.0223 29.4283C44.0223 29.8097 43.7132 30.1189 43.3318 30.1189H14.1437C13.7623 30.1189 13.4531 29.8097 13.4531 29.4283C13.4531 29.0469 13.7623 28.7377 14.1437 28.7377H43.3318C43.7132 28.7377 44.0223 29.0469 44.0223 29.4283Z" fill="black"/>
</svg>
