<svg width="36" height="36" viewBox="0 0 36 36" fill="none" xmlns="http://www.w3.org/2000/svg">
<g clip-path="url(#clip0_4_55)">
<path d="M35.8847 13.7586C35.608 12.9086 34.8572 12.2756 33.9715 12.1454L24.403 10.7556L20.1242 2.0864C19.7292 1.28328 18.8959 0.764099 18.0007 0.764099C17.1047 0.764099 16.27 1.28304 15.8743 2.08593L11.5966 10.7556L2.02604 12.1456C1.1418 12.2754 0.391267 12.9084 0.113795 13.7591C-0.162148 14.6103 0.073618 15.5634 0.714093 16.187L7.63749 22.9371L6.00471 32.4657C5.85171 33.3474 6.22119 34.2574 6.94572 34.7836C7.35237 35.0793 7.83437 35.2358 8.33996 35.2358C8.72309 35.2358 9.10444 35.1418 9.44238 34.9643L18.0008 30.465L26.5587 34.9643C26.8964 35.1419 27.2773 35.2358 27.6601 35.2358C28.1653 35.2358 28.647 35.0794 29.0536 34.7836C29.7782 34.2567 30.1479 33.3469 29.9959 32.4667L28.3614 22.937L35.286 16.1872C35.9279 15.5617 36.163 14.6081 35.8847 13.7586ZM34.5934 15.4769L27.482 22.4087C27.3653 22.5228 27.3117 22.6869 27.3394 22.8478L29.0183 32.6351C29.1066 33.1464 28.8917 33.6751 28.4704 33.9818C28.2343 34.1534 27.9542 34.2444 27.6601 34.2444C27.4374 34.2444 27.2163 34.1898 27.0204 34.0867L18.2317 29.4658C18.1593 29.4278 18.0801 29.409 18.0008 29.409C17.9214 29.409 17.8421 29.4278 17.77 29.4658L8.98091 34.0867C8.52567 34.3257 7.94396 34.2838 7.52867 33.9816C7.10766 33.6759 6.8929 33.1474 6.98196 32.6344L8.65914 22.848C8.68667 22.6873 8.63338 22.5229 8.51655 22.4091L1.40616 15.4769C1.03368 15.1141 0.896623 14.56 1.0568 14.0661C1.21821 13.5714 1.65539 13.2029 2.1694 13.1273L11.9973 11.6998C12.1588 11.6763 12.2986 11.5748 12.3708 11.4283L16.7638 2.52452C16.9939 2.05758 17.4794 1.75587 18.0008 1.75587C18.5208 1.75587 19.0048 2.05734 19.2346 2.52476L23.6291 11.4283C23.7015 11.5748 23.8409 11.6762 24.0026 11.6998L33.8282 13.1271C34.3438 13.2029 34.7808 13.5711 34.9421 14.0665C35.1034 14.5598 34.9668 15.1134 34.5934 15.4769Z" fill="black"/>
</g>
<defs>
<clipPath id="clip0_4_55">
<rect width="36" height="36" fill="white"/>
</clipPath>
</defs>
</svg>
